<?xml version="1.0" standalone="no"?>
<!DOCTYPE svg PUBLIC "-//W3C//DTD SVG 20010904//EN"
 "http://www.w3.org/TR/2001/REC-SVG-20010904/DTD/svg10.dtd">
<svg version="1.0" xmlns="http://www.w3.org/2000/svg"
 width="55.000000pt" height="40.000000pt" viewBox="0 0 55.000000 40.000000"
 preserveAspectRatio="xMidYMid meet">

<g transform="translate(0.000000,40.000000) scale(0.100000,-0.100000)"
fill="#000000" stroke="none">
<path d="M36 378 c-9 -12 -16 -41 -16 -63 0 -23 -6 -47 -12 -53 -9 -9 -10 -15
-2 -20 6 -4 13 -31 16 -61 5 -54 18 -71 53 -71 19 1 19 1 1 15 -12 9 -20 31
-23 62 -3 26 -10 53 -15 60 -5 7 -5 14 2 18 5 3 10 26 10 50 0 33 6 50 22 65
l22 20 -22 0 c-11 0 -28 -10 -36 -22z"/>
<path d="M478 380 c16 -15 22 -32 22 -63 0 -24 5 -48 11 -54 8 -8 8 -13 0 -17
-6 -4 -11 -27 -11 -51 0 -33 -6 -50 -22 -65 -21 -19 -21 -20 -2 -20 35 0 47
17 52 71 3 30 9 57 15 61 8 4 8 11 0 20 -6 7 -13 34 -15 60 -6 55 -21 78 -51
78 -21 0 -21 0 1 -20z"/>
<path d="M170 360 c0 -16 7 -20 35 -20 l35 0 0 -73 c0 -82 -9 -97 -57 -97 -24
0 -37 7 -49 25 -18 28 -54 34 -54 9 0 -62 103 -108 156 -70 13 10 23 11 31 4
7 -5 38 -16 70 -23 51 -12 61 -12 85 3 24 14 28 23 28 58 0 40 -2 43 -43 63
-24 12 -52 21 -63 21 -11 0 -29 7 -40 15 -19 15 -19 15 0 30 25 19 46 19 72 0
18 -12 24 -12 39 -1 17 12 17 14 -8 31 -26 16 -96 23 -116 11 -5 -3 -7 3 -4
14 5 18 0 20 -56 20 -54 0 -61 -2 -61 -20z m142 -135 c15 -6 13 -65 -2 -65
-16 0 -29 27 -23 48 6 24 6 24 25 17z m103 -7 c36 -16 35 -67 -2 -90 -25 -15
-28 -15 -55 5 -34 25 -36 60 -6 81 27 19 30 19 63 4z"/>
<path d="M340 178 c0 -8 17 -14 48 -15 29 -2 42 1 33 6 -11 7 -11 9 0 14 8 3
-7 6 -33 6 -32 1 -48 -3 -48 -11z"/>
<path d="M40 33 c0 -43 5 -41 13 5 4 18 2 32 -3 32 -6 0 -10 -16 -10 -37z"/>
<path d="M84 55 c-4 -8 -10 -12 -15 -9 -5 3 -9 1 -9 -5 0 -16 18 -22 26 -9 6
9 10 5 15 -12 6 -21 7 -19 8 13 1 37 -14 51 -25 22z"/>
<path d="M131 39 c-6 -18 -11 -32 -11 -33 0 -1 16 -1 35 -1 19 0 35 1 35 3 0
11 -32 62 -39 62 -5 0 -14 -14 -20 -31z m29 1 c0 -5 -5 -10 -11 -10 -5 0 -7 5
-4 10 3 6 8 10 11 10 2 0 4 -4 4 -10z"/>
<path d="M200 54 c0 -9 9 -18 20 -21 11 -3 17 -10 14 -15 -3 -5 -12 -7 -20 -4
-8 3 -14 1 -14 -5 0 -6 10 -9 22 -7 31 4 35 34 6 42 -22 7 -22 7 -3 16 19 8
19 9 -2 9 -15 1 -23 -5 -23 -15z"/>
<path d="M267 62 c6 -4 13 -21 16 -37 l4 -30 2 32 c0 17 7 34 14 36 6 3 -1 6
-18 6 -16 0 -25 -3 -18 -7z"/>
<path d="M320 35 c0 -32 3 -35 28 -34 l27 0 -25 11 -25 11 25 7 c16 5 19 8 8
9 -10 1 -18 5 -18 10 0 5 8 12 18 14 10 3 6 5 -10 6 -25 1 -28 -2 -28 -34z"/>
<path d="M380 41 c0 -31 15 -50 23 -29 3 10 7 10 18 1 12 -10 15 -7 14 20 0
27 -4 32 -27 35 -25 3 -28 0 -28 -27z m45 9 c3 -5 -1 -10 -9 -10 -9 0 -16 5
-16 10 0 6 4 10 9 10 6 0 13 -4 16 -10z"/>
<path d="M464 36 l10 -33 17 31 c17 31 16 53 -1 26 -7 -11 -12 -11 -23 -2 -12
10 -12 7 -3 -22z"/>
</g>
</svg>
